<svg xmlns="http://www.w3.org/2000/svg" xmlns:xlink="http://www.w3.org/1999/xlink" width="1920" zoomAndPan="magnify" viewBox="0 0 1440 809.999993" height="1080" preserveAspectRatio="xMidYMid meet" version="1.0"><defs><g/><clipPath id="e1d69a5e2d"><path d="M 695.804688 262.5 L 816 262.5 L 816 458 L 695.804688 458 Z M 695.804688 262.5 " clip-rule="nonzero"/></clipPath><clipPath id="2d7d9b64dc"><path d="M 695.804688 262.5 C 701.4375 262.5 707.042969 262.894531 712.621094 263.683594 C 718.195312 264.472656 723.691406 265.648438 729.101562 267.210938 C 734.511719 268.773438 739.785156 270.707031 744.925781 273.011719 C 750.0625 275.320312 755.015625 277.972656 759.78125 280.976562 C 764.546875 283.976562 769.078125 287.300781 773.375 290.941406 C 777.671875 294.582031 781.691406 298.503906 785.4375 302.710938 C 789.179688 306.917969 792.613281 311.367188 795.730469 316.054688 C 798.851562 320.746094 801.625 325.628906 804.054688 330.710938 C 806.484375 335.792969 808.550781 341.015625 810.242188 346.386719 C 811.9375 351.757812 813.25 357.222656 814.175781 362.777344 C 815.101562 368.332031 815.632812 373.925781 815.769531 379.558594 C 815.910156 385.1875 815.652344 390.800781 815 396.394531 C 814.347656 401.988281 813.304688 407.507812 811.878906 412.957031 C 810.449219 418.402344 808.644531 423.726562 806.464844 428.917969 C 804.285156 434.113281 801.753906 439.128906 798.871094 443.964844 C 795.984375 448.800781 792.777344 453.414062 789.242188 457.796875 L 695.804688 382.5 Z M 695.804688 262.5 " clip-rule="nonzero"/></clipPath><clipPath id="7bc060f28e"><path d="M 695.804688 382.5 L 793 382.5 L 793 498.898438 L 695.804688 498.898438 Z M 695.804688 382.5 " clip-rule="nonzero"/></clipPath><clipPath id="7e15a0b91f"><path d="M 792.886719 453.035156 C 784.835938 464.117188 775.171875 473.542969 763.890625 481.316406 C 752.613281 489.085938 740.359375 494.761719 727.136719 498.335938 L 695.804688 382.5 Z M 792.886719 453.035156 " clip-rule="nonzero"/></clipPath><clipPath id="ffaee8a0d9"><path d="M 575 262.5 L 733 262.5 L 733 503 L 575 503 Z M 575 262.5 " clip-rule="nonzero"/></clipPath><clipPath id="b312848cb5"><path d="M 732.886719 496.625 C 728.777344 497.964844 724.605469 499.074219 720.371094 499.957031 C 716.140625 500.84375 711.871094 501.5 707.570312 501.921875 C 703.265625 502.347656 698.953125 502.535156 694.628906 502.496094 C 690.304688 502.453125 685.996094 502.175781 681.703125 501.667969 C 677.410156 501.160156 673.15625 500.421875 668.941406 499.453125 C 664.726562 498.484375 660.578125 497.292969 656.492188 495.878906 C 652.40625 494.460938 648.410156 492.828125 644.503906 490.980469 C 640.59375 489.132812 636.796875 487.078125 633.109375 484.816406 C 629.421875 482.558594 625.867188 480.109375 622.445312 477.464844 C 619.023438 474.820312 615.753906 472 612.636719 469.003906 C 609.523438 466.007812 606.574219 462.851562 603.800781 459.539062 C 601.023438 456.222656 598.433594 452.765625 596.03125 449.171875 C 593.628906 445.578125 591.429688 441.863281 589.425781 438.03125 C 587.425781 434.195312 585.636719 430.265625 584.0625 426.242188 C 582.484375 422.214844 581.132812 418.117188 580 413.941406 C 578.867188 409.769531 577.960938 405.546875 577.285156 401.277344 C 576.609375 397.007812 576.164062 392.714844 575.949219 388.394531 C 575.738281 384.074219 575.757812 379.757812 576.015625 375.441406 C 576.269531 371.125 576.753906 366.835938 577.472656 362.570312 C 578.191406 358.308594 579.136719 354.097656 580.308594 349.933594 C 581.484375 345.773438 582.878906 341.6875 584.492188 337.675781 C 586.105469 333.664062 587.933594 329.753906 589.972656 325.941406 C 592.011719 322.125 594.246094 318.433594 596.683594 314.863281 C 599.121094 311.289062 601.742188 307.859375 604.550781 304.574219 C 607.359375 301.285156 610.335938 298.15625 613.480469 295.191406 C 616.628906 292.226562 619.925781 289.4375 623.371094 286.828125 C 626.820312 284.21875 630.398438 281.800781 634.105469 279.578125 C 637.8125 277.355469 641.632812 275.335938 645.558594 273.527344 C 649.484375 271.714844 653.496094 270.121094 657.59375 268.746094 C 661.695312 267.371094 665.855469 266.21875 670.078125 265.289062 C 674.300781 264.363281 678.5625 263.667969 682.859375 263.199219 C 687.160156 262.734375 691.46875 262.5 695.792969 262.5 L 695.804688 382.5 Z M 732.886719 496.625 " clip-rule="nonzero"/></clipPath><clipPath id="49c93380b9"><path d="M 695.804688 262 L 696 262 L 696 382.5 L 695.804688 382.5 Z M 695.804688 262 " clip-rule="nonzero"/></clipPath><clipPath id="055670b5ee"><path d="M 695.804688 262.5 C 695.808594 262.5 695.8125 262.5 695.816406 262.5 L 695.804688 382.5 Z M 695.804688 262.5 " clip-rule="nonzero"/></clipPath></defs><rect x="-144" width="1728" fill="#ffffff" y="-80.999999" height="971.999992" fill-opacity="1"/><rect x="-144" width="1728" fill="#ffffff" y="-80.999999" height="971.999992" fill-opacity="1"/><g fill="#000000" fill-opacity="1"><g transform="translate(495.945565, 402.077899)"><g><path d="M 9.078125 0.234375 C 7.640625 0.234375 6.359375 -0.09375 5.234375 -0.75 C 4.109375 -1.40625 3.226562 -2.367188 2.59375 -3.640625 C 1.957031 -4.910156 1.640625 -6.429688 1.640625 -8.203125 C 1.640625 -9.984375 1.957031 -11.503906 2.59375 -12.765625 C 3.226562 -14.035156 4.109375 -15 5.234375 -15.65625 C 6.359375 -16.320312 7.640625 -16.65625 9.078125 -16.65625 C 10.609375 -16.65625 11.882812 -16.363281 12.90625 -15.78125 C 13.925781 -15.207031 14.660156 -14.332031 15.109375 -13.15625 L 13.875 -12.34375 L 13.59375 -12.34375 C 13.144531 -13.28125 12.5625 -13.941406 11.84375 -14.328125 C 11.125 -14.722656 10.203125 -14.921875 9.078125 -14.921875 C 8.046875 -14.921875 7.128906 -14.691406 6.328125 -14.234375 C 5.523438 -13.773438 4.882812 -13.046875 4.40625 -12.046875 C 3.9375 -11.046875 3.703125 -9.765625 3.703125 -8.203125 C 3.703125 -6.648438 3.9375 -5.375 4.40625 -4.375 C 4.882812 -3.382812 5.523438 -2.65625 6.328125 -2.1875 C 7.128906 -1.726562 8.046875 -1.5 9.078125 -1.5 C 10.265625 -1.5 11.234375 -1.765625 11.984375 -2.296875 C 12.742188 -2.835938 13.304688 -3.707031 13.671875 -4.90625 L 13.953125 -4.90625 L 15.25 -4.265625 C 14.863281 -2.816406 14.144531 -1.703125 13.09375 -0.921875 C 12.039062 -0.148438 10.703125 0.234375 9.078125 0.234375 Z M 9.078125 0.234375 "/></g></g></g><g fill="#000000" fill-opacity="1"><g transform="translate(512.044586, 402.077899)"><g><path d="M 7.109375 0.234375 C 5.941406 0.234375 4.925781 -0.0078125 4.0625 -0.5 C 3.195312 -1 2.53125 -1.726562 2.0625 -2.6875 C 1.59375 -3.65625 1.359375 -4.820312 1.359375 -6.1875 C 1.359375 -7.5625 1.59375 -8.726562 2.0625 -9.6875 C 2.53125 -10.65625 3.195312 -11.382812 4.0625 -11.875 C 4.925781 -12.375 5.941406 -12.625 7.109375 -12.625 C 8.273438 -12.625 9.289062 -12.375 10.15625 -11.875 C 11.019531 -11.382812 11.6875 -10.65625 12.15625 -9.6875 C 12.625 -8.726562 12.859375 -7.5625 12.859375 -6.1875 C 12.859375 -4.820312 12.625 -3.65625 12.15625 -2.6875 C 11.6875 -1.726562 11.019531 -1 10.15625 -0.5 C 9.289062 -0.0078125 8.273438 0.234375 7.109375 0.234375 Z M 7.109375 -1.40625 C 8.347656 -1.40625 9.289062 -1.789062 9.9375 -2.5625 C 10.59375 -3.34375 10.921875 -4.550781 10.921875 -6.1875 C 10.921875 -7.820312 10.59375 -9.03125 9.9375 -9.8125 C 9.289062 -10.59375 8.347656 -10.984375 7.109375 -10.984375 C 5.867188 -10.984375 4.921875 -10.59375 4.265625 -9.8125 C 3.609375 -9.03125 3.28125 -7.820312 3.28125 -6.1875 C 3.28125 -4.550781 3.609375 -3.34375 4.265625 -2.5625 C 4.921875 -1.789062 5.867188 -1.40625 7.109375 -1.40625 Z M 7.109375 -1.40625 "/></g></g></g><g fill="#000000" fill-opacity="1"><g transform="translate(526.257529, 402.077899)"><g><path d="M 6.421875 0.234375 C 5.429688 0.234375 4.554688 0 3.796875 -0.46875 C 3.035156 -0.945312 2.4375 -1.664062 2 -2.625 C 1.570312 -3.582031 1.359375 -4.769531 1.359375 -6.1875 C 1.359375 -7.601562 1.582031 -8.789062 2.03125 -9.75 C 2.476562 -10.71875 3.097656 -11.4375 3.890625 -11.90625 C 4.679688 -12.382812 5.597656 -12.625 6.640625 -12.625 C 7.460938 -12.625 8.203125 -12.46875 8.859375 -12.15625 C 9.515625 -11.84375 10.082031 -11.332031 10.5625 -10.625 L 10.796875 -10.671875 L 10.796875 -17.359375 L 12.625 -17.359375 L 12.625 0 L 10.796875 0 L 10.796875 -1.8125 L 10.5625 -1.859375 C 10.15625 -1.242188 9.601562 -0.738281 8.90625 -0.34375 C 8.21875 0.0390625 7.390625 0.234375 6.421875 0.234375 Z M 7 -1.40625 C 8.144531 -1.40625 9.0625 -1.800781 9.75 -2.59375 C 10.445312 -3.382812 10.796875 -4.582031 10.796875 -6.1875 C 10.796875 -7.800781 10.445312 -9.003906 9.75 -9.796875 C 9.0625 -10.585938 8.144531 -10.984375 7 -10.984375 C 5.8125 -10.984375 4.894531 -10.597656 4.25 -9.828125 C 3.601562 -9.054688 3.28125 -7.84375 3.28125 -6.1875 C 3.28125 -3 4.519531 -1.40625 7 -1.40625 Z M 7 -1.40625 "/></g></g></g><g fill="#000000" fill-opacity="1"><g transform="translate(541.043033, 402.077899)"><g><path d="M 11.796875 -5.765625 L 3.296875 -5.765625 C 3.347656 -4.265625 3.707031 -3.160156 4.375 -2.453125 C 5.039062 -1.753906 5.957031 -1.40625 7.125 -1.40625 C 8.007812 -1.40625 8.722656 -1.5625 9.265625 -1.875 C 9.804688 -2.1875 10.226562 -2.679688 10.53125 -3.359375 L 10.765625 -3.359375 L 11.953125 -2.65625 C 11.597656 -1.75 11.023438 -1.039062 10.234375 -0.53125 C 9.441406 -0.0195312 8.40625 0.234375 7.125 0.234375 C 5.925781 0.234375 4.894531 0 4.03125 -0.46875 C 3.175781 -0.9375 2.515625 -1.648438 2.046875 -2.609375 C 1.585938 -3.566406 1.359375 -4.757812 1.359375 -6.1875 C 1.359375 -7.59375 1.601562 -8.78125 2.09375 -9.75 C 2.582031 -10.71875 3.25 -11.4375 4.09375 -11.90625 C 4.945312 -12.382812 5.921875 -12.625 7.015625 -12.625 C 8.609375 -12.625 9.847656 -12.175781 10.734375 -11.28125 C 11.628906 -10.382812 12.078125 -9.054688 12.078125 -7.296875 C 12.078125 -6.609375 12.066406 -6.144531 12.046875 -5.90625 Z M 10.28125 -7.296875 C 10.25 -8.617188 9.953125 -9.578125 9.390625 -10.171875 C 8.835938 -10.773438 8.046875 -11.078125 7.015625 -11.078125 C 5.929688 -11.078125 5.078125 -10.773438 4.453125 -10.171875 C 3.835938 -9.566406 3.460938 -8.609375 3.328125 -7.296875 Z M 10.28125 -7.296875 "/></g></g></g><g fill="#000000" fill-opacity="1"><g transform="translate(554.245577, 402.077899)"><g><path d="M 2.15625 0 L 2.15625 -12.390625 L 3.890625 -12.390625 L 3.890625 -10.4375 L 4.140625 -10.390625 C 4.710938 -11.796875 5.796875 -12.5 7.390625 -12.5 C 8.234375 -12.5 8.863281 -12.347656 9.28125 -12.046875 L 8.8125 -10.484375 L 8.59375 -10.4375 C 8.125 -10.675781 7.613281 -10.796875 7.0625 -10.796875 C 6.070312 -10.796875 5.3125 -10.421875 4.78125 -9.671875 C 4.25 -8.929688 3.984375 -7.734375 3.984375 -6.078125 L 3.984375 0 Z M 2.15625 0 "/></g></g></g><g fill="#000000" fill-opacity="1"><g transform="translate(506.597908, 433.577897)"><g><path d="M 6.765625 0.234375 C 5.222656 0.234375 3.992188 -0.101562 3.078125 -0.78125 C 2.160156 -1.46875 1.566406 -2.4375 1.296875 -3.6875 L 2.71875 -4.328125 L 2.96875 -4.296875 C 3.15625 -3.648438 3.398438 -3.125 3.703125 -2.71875 C 4.015625 -2.320312 4.414062 -2.019531 4.90625 -1.8125 C 5.40625 -1.601562 6.023438 -1.5 6.765625 -1.5 C 7.867188 -1.5 8.726562 -1.832031 9.34375 -2.5 C 9.96875 -3.164062 10.28125 -4.128906 10.28125 -5.390625 C 10.28125 -6.679688 9.972656 -7.660156 9.359375 -8.328125 C 8.753906 -8.992188 7.914062 -9.328125 6.84375 -9.328125 C 6.03125 -9.328125 5.367188 -9.160156 4.859375 -8.828125 C 4.347656 -8.503906 3.898438 -8.003906 3.515625 -7.328125 L 1.96875 -7.453125 L 2.28125 -16.421875 L 11.484375 -16.421875 L 11.484375 -14.78125 L 3.96875 -14.78125 L 3.78125 -9.328125 L 4.015625 -9.28125 C 4.398438 -9.851562 4.867188 -10.28125 5.421875 -10.5625 C 5.984375 -10.84375 6.65625 -10.984375 7.4375 -10.984375 C 8.414062 -10.984375 9.269531 -10.765625 10 -10.328125 C 10.726562 -9.890625 11.289062 -9.25 11.6875 -8.40625 C 12.09375 -7.570312 12.296875 -6.566406 12.296875 -5.390625 C 12.296875 -4.222656 12.066406 -3.210938 11.609375 -2.359375 C 11.148438 -1.515625 10.5 -0.867188 9.65625 -0.421875 C 8.820312 0.015625 7.859375 0.234375 6.765625 0.234375 Z M 6.765625 0.234375 "/></g></g></g><g fill="#000000" fill-opacity="1"><g transform="translate(520.182159, 433.577897)"><g><path d="M 6.765625 0.234375 C 5.222656 0.234375 3.992188 -0.101562 3.078125 -0.78125 C 2.160156 -1.46875 1.566406 -2.4375 1.296875 -3.6875 L 2.71875 -4.328125 L 2.96875 -4.296875 C 3.15625 -3.648438 3.398438 -3.125 3.703125 -2.71875 C 4.015625 -2.320312 4.414062 -2.019531 4.90625 -1.8125 C 5.40625 -1.601562 6.023438 -1.5 6.765625 -1.5 C 7.867188 -1.5 8.726562 -1.832031 9.34375 -2.5 C 9.96875 -3.164062 10.28125 -4.128906 10.28125 -5.390625 C 10.28125 -6.679688 9.972656 -7.660156 9.359375 -8.328125 C 8.753906 -8.992188 7.914062 -9.328125 6.84375 -9.328125 C 6.03125 -9.328125 5.367188 -9.160156 4.859375 -8.828125 C 4.347656 -8.503906 3.898438 -8.003906 3.515625 -7.328125 L 1.96875 -7.453125 L 2.28125 -16.421875 L 11.484375 -16.421875 L 11.484375 -14.78125 L 3.96875 -14.78125 L 3.78125 -9.328125 L 4.015625 -9.28125 C 4.398438 -9.851562 4.867188 -10.28125 5.421875 -10.5625 C 5.984375 -10.84375 6.65625 -10.984375 7.4375 -10.984375 C 8.414062 -10.984375 9.269531 -10.765625 10 -10.328125 C 10.726562 -9.890625 11.289062 -9.25 11.6875 -8.40625 C 12.09375 -7.570312 12.296875 -6.566406 12.296875 -5.390625 C 12.296875 -4.222656 12.066406 -3.210938 11.609375 -2.359375 C 11.148438 -1.515625 10.5 -0.867188 9.65625 -0.421875 C 8.820312 0.015625 7.859375 0.234375 6.765625 0.234375 Z M 6.765625 0.234375 "/></g></g></g><g fill="#000000" fill-opacity="1"><g transform="translate(533.766409, 433.577897)"><g><path d="M 4.671875 -7.5 C 3.929688 -7.5 3.28125 -7.660156 2.71875 -7.984375 C 2.164062 -8.316406 1.726562 -8.820312 1.40625 -9.5 C 1.09375 -10.1875 0.9375 -11.046875 0.9375 -12.078125 C 0.9375 -13.609375 1.273438 -14.753906 1.953125 -15.515625 C 2.628906 -16.273438 3.535156 -16.65625 4.671875 -16.65625 C 5.398438 -16.65625 6.039062 -16.488281 6.59375 -16.15625 C 7.15625 -15.832031 7.59375 -15.332031 7.90625 -14.65625 C 8.21875 -13.976562 8.375 -13.117188 8.375 -12.078125 C 8.375 -11.046875 8.21875 -10.1875 7.90625 -9.5 C 7.59375 -8.820312 7.15625 -8.316406 6.59375 -7.984375 C 6.039062 -7.660156 5.398438 -7.5 4.671875 -7.5 Z M 5.046875 0 L 3.40625 0 L 3.359375 -0.234375 L 14.328125 -16.421875 L 15.984375 -16.421875 L 16.03125 -16.1875 Z M 4.671875 -8.921875 C 5.378906 -8.921875 5.898438 -9.160156 6.234375 -9.640625 C 6.566406 -10.117188 6.734375 -10.929688 6.734375 -12.078125 C 6.734375 -13.222656 6.566406 -14.035156 6.234375 -14.515625 C 5.898438 -15.003906 5.378906 -15.25 4.671875 -15.25 C 4.191406 -15.25 3.800781 -15.144531 3.5 -14.9375 C 3.195312 -14.738281 2.96875 -14.40625 2.8125 -13.9375 C 2.65625 -13.476562 2.578125 -12.859375 2.578125 -12.078125 C 2.578125 -11.304688 2.65625 -10.6875 2.8125 -10.21875 C 2.96875 -9.757812 3.195312 -9.425781 3.5 -9.21875 C 3.800781 -9.019531 4.191406 -8.921875 4.671875 -8.921875 Z M 14.75 0.234375 C 13.613281 0.234375 12.707031 -0.144531 12.03125 -0.90625 C 11.363281 -1.664062 11.03125 -2.804688 11.03125 -4.328125 C 11.03125 -5.867188 11.363281 -7.019531 12.03125 -7.78125 C 12.707031 -8.539062 13.613281 -8.921875 14.75 -8.921875 C 15.488281 -8.921875 16.132812 -8.753906 16.6875 -8.421875 C 17.238281 -8.097656 17.671875 -7.59375 17.984375 -6.90625 C 18.304688 -6.226562 18.46875 -5.367188 18.46875 -4.328125 C 18.46875 -3.296875 18.304688 -2.4375 17.984375 -1.75 C 17.671875 -1.070312 17.238281 -0.570312 16.6875 -0.25 C 16.132812 0.0703125 15.488281 0.234375 14.75 0.234375 Z M 14.75 -1.171875 C 15.457031 -1.171875 15.976562 -1.410156 16.3125 -1.890625 C 16.65625 -2.367188 16.828125 -3.179688 16.828125 -4.328125 C 16.828125 -5.472656 16.65625 -6.285156 16.3125 -6.765625 C 15.976562 -7.253906 15.457031 -7.5 14.75 -7.5 C 14.039062 -7.5 13.515625 -7.257812 13.171875 -6.78125 C 12.835938 -6.300781 12.671875 -5.484375 12.671875 -4.328125 C 12.671875 -3.179688 12.835938 -2.367188 13.171875 -1.890625 C 13.515625 -1.410156 14.039062 -1.171875 14.75 -1.171875 Z M 14.75 -1.171875 "/></g></g></g><g fill="#000000" fill-opacity="1"><g transform="translate(846.079058, 299.343403)"><g><path d="M 7.796875 -16.421875 C 9.453125 -16.421875 10.878906 -16.125 12.078125 -15.53125 C 13.273438 -14.9375 14.195312 -14.023438 14.84375 -12.796875 C 15.488281 -11.578125 15.8125 -10.046875 15.8125 -8.203125 C 15.8125 -6.367188 15.488281 -4.835938 14.84375 -3.609375 C 14.195312 -2.390625 13.273438 -1.484375 12.078125 -0.890625 C 10.878906 -0.296875 9.453125 0 7.796875 0 L 2.484375 0 L 2.484375 -16.421875 Z M 7.609375 -1.640625 C 8.972656 -1.640625 10.101562 -1.851562 11 -2.28125 C 11.90625 -2.707031 12.585938 -3.398438 13.046875 -4.359375 C 13.515625 -5.328125 13.75 -6.609375 13.75 -8.203125 C 13.75 -9.804688 13.515625 -11.085938 13.046875 -12.046875 C 12.585938 -13.015625 11.90625 -13.710938 11 -14.140625 C 10.101562 -14.566406 8.972656 -14.78125 7.609375 -14.78125 L 4.40625 -14.78125 L 4.40625 -1.640625 Z M 7.609375 -1.640625 "/></g></g></g><g fill="#000000" fill-opacity="1"><g transform="translate(863.525277, 299.343403)"><g><path d="M 11.796875 -5.765625 L 3.296875 -5.765625 C 3.347656 -4.265625 3.707031 -3.160156 4.375 -2.453125 C 5.039062 -1.753906 5.957031 -1.40625 7.125 -1.40625 C 8.007812 -1.40625 8.722656 -1.5625 9.265625 -1.875 C 9.804688 -2.1875 10.226562 -2.679688 10.53125 -3.359375 L 10.765625 -3.359375 L 11.953125 -2.65625 C 11.597656 -1.75 11.023438 -1.039062 10.234375 -0.53125 C 9.441406 -0.0195312 8.40625 0.234375 7.125 0.234375 C 5.925781 0.234375 4.894531 0 4.03125 -0.46875 C 3.175781 -0.9375 2.515625 -1.648438 2.046875 -2.609375 C 1.585938 -3.566406 1.359375 -4.757812 1.359375 -6.1875 C 1.359375 -7.59375 1.601562 -8.78125 2.09375 -9.75 C 2.582031 -10.71875 3.25 -11.4375 4.09375 -11.90625 C 4.945312 -12.382812 5.921875 -12.625 7.015625 -12.625 C 8.609375 -12.625 9.847656 -12.175781 10.734375 -11.28125 C 11.628906 -10.382812 12.078125 -9.054688 12.078125 -7.296875 C 12.078125 -6.609375 12.066406 -6.144531 12.046875 -5.90625 Z M 10.28125 -7.296875 C 10.25 -8.617188 9.953125 -9.578125 9.390625 -10.171875 C 8.835938 -10.773438 8.046875 -11.078125 7.015625 -11.078125 C 5.929688 -11.078125 5.078125 -10.773438 4.453125 -10.171875 C 3.835938 -9.566406 3.460938 -8.609375 3.328125 -7.296875 Z M 10.28125 -7.296875 "/></g></g></g><g fill="#000000" fill-opacity="1"><g transform="translate(876.727822, 299.343403)"><g><path d="M 5.65625 0.234375 C 4.875 0.234375 4.148438 0.132812 3.484375 -0.0625 C 2.828125 -0.269531 2.269531 -0.550781 1.8125 -0.90625 C 1.351562 -1.269531 1.03125 -1.679688 0.84375 -2.140625 L 1.921875 -3.25 L 2.15625 -3.25 C 2.5625 -2.644531 3.046875 -2.1875 3.609375 -1.875 C 4.179688 -1.5625 4.863281 -1.40625 5.65625 -1.40625 C 6.5625 -1.40625 7.253906 -1.582031 7.734375 -1.9375 C 8.210938 -2.289062 8.453125 -2.785156 8.453125 -3.421875 C 8.453125 -3.910156 8.304688 -4.3125 8.015625 -4.625 C 7.722656 -4.945312 7.253906 -5.1875 6.609375 -5.34375 L 4.53125 -5.859375 C 3.414062 -6.128906 2.597656 -6.554688 2.078125 -7.140625 C 1.566406 -7.722656 1.3125 -8.445312 1.3125 -9.3125 C 1.3125 -9.988281 1.484375 -10.570312 1.828125 -11.0625 C 2.171875 -11.5625 2.664062 -11.945312 3.3125 -12.21875 C 3.96875 -12.488281 4.738281 -12.625 5.625 -12.625 C 6.757812 -12.625 7.65625 -12.460938 8.3125 -12.140625 C 8.96875 -11.828125 9.476562 -11.382812 9.84375 -10.8125 L 8.8125 -9.796875 L 8.59375 -9.796875 C 8.195312 -10.253906 7.765625 -10.582031 7.296875 -10.78125 C 6.828125 -10.988281 6.269531 -11.09375 5.625 -11.09375 C 4.8125 -11.09375 4.1875 -10.945312 3.75 -10.65625 C 3.3125 -10.363281 3.09375 -9.941406 3.09375 -9.390625 C 3.09375 -8.890625 3.242188 -8.484375 3.546875 -8.171875 C 3.859375 -7.867188 4.398438 -7.625 5.171875 -7.4375 L 7.21875 -6.9375 C 8.300781 -6.6875 9.082031 -6.265625 9.5625 -5.671875 C 10.039062 -5.078125 10.28125 -4.335938 10.28125 -3.453125 C 10.28125 -2.722656 10.109375 -2.082031 9.765625 -1.53125 C 9.421875 -0.976562 8.898438 -0.546875 8.203125 -0.234375 C 7.503906 0.078125 6.65625 0.234375 5.65625 0.234375 Z M 5.65625 0.234375 "/></g></g></g><g fill="#000000" fill-opacity="1"><g transform="translate(888.179009, 299.343403)"><g><path d="M 3.078125 -14.78125 C 2.691406 -14.78125 2.375 -14.898438 2.125 -15.140625 C 1.882812 -15.390625 1.765625 -15.703125 1.765625 -16.078125 C 1.765625 -16.441406 1.882812 -16.742188 2.125 -16.984375 C 2.375 -17.234375 2.691406 -17.359375 3.078125 -17.359375 C 3.460938 -17.359375 3.773438 -17.234375 4.015625 -16.984375 C 4.265625 -16.742188 4.390625 -16.441406 4.390625 -16.078125 C 4.390625 -15.703125 4.265625 -15.390625 4.015625 -15.140625 C 3.773438 -14.898438 3.460938 -14.78125 3.078125 -14.78125 Z M 2.15625 0 L 2.15625 -12.390625 L 3.984375 -12.390625 L 3.984375 0 Z M 2.15625 0 "/></g></g></g><g fill="#000000" fill-opacity="1"><g transform="translate(894.319988, 299.343403)"><g><path d="M 6.375 5.25 C 4.425781 5.25 3 4.921875 2.09375 4.265625 C 1.195312 3.617188 0.75 2.757812 0.75 1.6875 C 0.75 0.988281 0.957031 0.429688 1.375 0.015625 C 1.800781 -0.390625 2.414062 -0.679688 3.21875 -0.859375 L 3.21875 -1.09375 C 2.832031 -1.3125 2.539062 -1.566406 2.34375 -1.859375 C 2.15625 -2.148438 2.0625 -2.5 2.0625 -2.90625 C 2.0625 -3.382812 2.210938 -3.773438 2.515625 -4.078125 C 2.816406 -4.378906 3.269531 -4.609375 3.875 -4.765625 L 3.875 -5 C 2.53125 -5.707031 1.859375 -6.863281 1.859375 -8.46875 C 1.859375 -9.28125 2.039062 -10 2.40625 -10.625 C 2.769531 -11.25 3.289062 -11.738281 3.96875 -12.09375 C 4.65625 -12.445312 5.453125 -12.625 6.359375 -12.625 C 7.398438 -12.625 8.269531 -12.394531 8.96875 -11.9375 C 9.226562 -12.226562 9.421875 -12.539062 9.546875 -12.875 C 9.679688 -13.207031 9.765625 -13.582031 9.796875 -14 L 10.046875 -14.15625 L 11.546875 -13.796875 C 11.472656 -13.160156 11.28125 -12.625 10.96875 -12.1875 C 10.664062 -11.757812 10.238281 -11.40625 9.6875 -11.125 L 9.6875 -10.875 C 10.082031 -10.5625 10.375 -10.191406 10.5625 -9.765625 C 10.757812 -9.347656 10.859375 -8.859375 10.859375 -8.296875 C 10.859375 -7.515625 10.671875 -6.8125 10.296875 -6.1875 C 9.921875 -5.570312 9.390625 -5.085938 8.703125 -4.734375 C 8.023438 -4.378906 7.242188 -4.203125 6.359375 -4.203125 C 6.253906 -4.203125 6.066406 -4.207031 5.796875 -4.21875 C 5.492188 -4.238281 5.269531 -4.25 5.125 -4.25 C 4.738281 -4.25 4.429688 -4.144531 4.203125 -3.9375 C 3.972656 -3.738281 3.859375 -3.484375 3.859375 -3.171875 C 3.859375 -2.773438 3.984375 -2.484375 4.234375 -2.296875 C 4.484375 -2.117188 4.894531 -2.019531 5.46875 -2 L 8.40625 -1.890625 C 9.664062 -1.847656 10.597656 -1.554688 11.203125 -1.015625 C 11.816406 -0.472656 12.125 0.296875 12.125 1.296875 C 12.125 2.035156 11.925781 2.703125 11.53125 3.296875 C 11.132812 3.890625 10.503906 4.363281 9.640625 4.71875 C 8.785156 5.070312 7.695312 5.25 6.375 5.25 Z M 6.359375 -5.765625 C 7.234375 -5.765625 7.910156 -5.992188 8.390625 -6.453125 C 8.867188 -6.910156 9.109375 -7.550781 9.109375 -8.375 C 9.109375 -9.226562 8.867188 -9.882812 8.390625 -10.34375 C 7.921875 -10.8125 7.242188 -11.046875 6.359375 -11.046875 C 5.472656 -11.046875 4.796875 -10.816406 4.328125 -10.359375 C 3.867188 -9.898438 3.640625 -9.238281 3.640625 -8.375 C 3.640625 -7.539062 3.867188 -6.894531 4.328125 -6.4375 C 4.796875 -5.988281 5.472656 -5.765625 6.359375 -5.765625 Z M 6.375 3.6875 C 7.289062 3.6875 8.035156 3.582031 8.609375 3.375 C 9.191406 3.175781 9.609375 2.910156 9.859375 2.578125 C 10.117188 2.242188 10.25 1.867188 10.25 1.453125 C 10.25 1.085938 10.179688 0.789062 10.046875 0.5625 C 9.910156 0.34375 9.6875 0.175781 9.375 0.0625 C 9.070312 -0.0390625 8.65625 -0.109375 8.125 -0.140625 L 5.34375 -0.28125 L 4.953125 -0.28125 C 3.398438 -0.257812 2.625 0.34375 2.625 1.53125 C 2.625 2.96875 3.875 3.6875 6.375 3.6875 Z M 6.375 3.6875 "/></g></g></g><g fill="#000000" fill-opacity="1"><g transform="translate(907.006106, 299.343403)"><g><path d="M 2.15625 0 L 2.15625 -12.390625 L 3.890625 -12.390625 L 3.890625 -10.4375 L 4.140625 -10.390625 C 4.546875 -11.117188 5.066406 -11.671875 5.703125 -12.046875 C 6.347656 -12.429688 7.128906 -12.625 8.046875 -12.625 C 9.535156 -12.625 10.613281 -12.242188 11.28125 -11.484375 C 11.957031 -10.722656 12.296875 -9.550781 12.296875 -7.96875 L 12.296875 0 L 10.46875 0 L 10.46875 -7.921875 C 10.46875 -8.671875 10.367188 -9.269531 10.171875 -9.71875 C 9.984375 -10.175781 9.6875 -10.507812 9.28125 -10.71875 C 8.882812 -10.925781 8.363281 -11.03125 7.71875 -11.03125 C 6.601562 -11.03125 5.703125 -10.660156 5.015625 -9.921875 C 4.328125 -9.179688 3.984375 -7.992188 3.984375 -6.359375 L 3.984375 0 Z M 2.15625 0 "/></g></g></g><g fill="#000000" fill-opacity="1"><g transform="translate(921.263956, 299.343403)"><g><path d="M 11.796875 -5.765625 L 3.296875 -5.765625 C 3.347656 -4.265625 3.707031 -3.160156 4.375 -2.453125 C 5.039062 -1.753906 5.957031 -1.40625 7.125 -1.40625 C 8.007812 -1.40625 8.722656 -1.5625 9.265625 -1.875 C 9.804688 -2.1875 10.226562 -2.679688 10.53125 -3.359375 L 10.765625 -3.359375 L 11.953125 -2.65625 C 11.597656 -1.75 11.023438 -1.039062 10.234375 -0.53125 C 9.441406 -0.0195312 8.40625 0.234375 7.125 0.234375 C 5.925781 0.234375 4.894531 0 4.03125 -0.46875 C 3.175781 -0.9375 2.515625 -1.648438 2.046875 -2.609375 C 1.585938 -3.566406 1.359375 -4.757812 1.359375 -6.1875 C 1.359375 -7.59375 1.601562 -8.78125 2.09375 -9.75 C 2.582031 -10.71875 3.25 -11.4375 4.09375 -11.90625 C 4.945312 -12.382812 5.921875 -12.625 7.015625 -12.625 C 8.609375 -12.625 9.847656 -12.175781 10.734375 -11.28125 C 11.628906 -10.382812 12.078125 -9.054688 12.078125 -7.296875 C 12.078125 -6.609375 12.066406 -6.144531 12.046875 -5.90625 Z M 10.28125 -7.296875 C 10.25 -8.617188 9.953125 -9.578125 9.390625 -10.171875 C 8.835938 -10.773438 8.046875 -11.078125 7.015625 -11.078125 C 5.929688 -11.078125 5.078125 -10.773438 4.453125 -10.171875 C 3.835938 -9.566406 3.460938 -8.609375 3.328125 -7.296875 Z M 10.28125 -7.296875 "/></g></g></g><g fill="#000000" fill-opacity="1"><g transform="translate(934.466501, 299.343403)"><g><path d="M 2.15625 0 L 2.15625 -12.390625 L 3.890625 -12.390625 L 3.890625 -10.4375 L 4.140625 -10.390625 C 4.710938 -11.796875 5.796875 -12.5 7.390625 -12.5 C 8.234375 -12.5 8.863281 -12.347656 9.28125 -12.046875 L 8.8125 -10.484375 L 8.59375 -10.4375 C 8.125 -10.675781 7.613281 -10.796875 7.0625 -10.796875 C 6.070312 -10.796875 5.3125 -10.421875 4.78125 -9.671875 C 4.25 -8.929688 3.984375 -7.734375 3.984375 -6.078125 L 3.984375 0 Z M 2.15625 0 "/></g></g></g><g fill="#000000" fill-opacity="1"><g transform="translate(871.883744, 330.843402)"><g><path d="M 6.5 0.234375 C 4.90625 0.234375 3.640625 -0.125 2.703125 -0.84375 C 1.765625 -1.5625 1.160156 -2.554688 0.890625 -3.828125 L 2.328125 -4.484375 L 2.578125 -4.4375 C 2.867188 -3.457031 3.3125 -2.722656 3.90625 -2.234375 C 4.5 -1.742188 5.363281 -1.5 6.5 -1.5 C 7.664062 -1.5 8.550781 -1.765625 9.15625 -2.296875 C 9.757812 -2.828125 10.0625 -3.613281 10.0625 -4.65625 C 10.0625 -5.664062 9.75 -6.4375 9.125 -6.96875 C 8.507812 -7.5 7.539062 -7.765625 6.21875 -7.765625 L 4.4375 -7.765625 L 4.4375 -9.359375 L 6.03125 -9.359375 C 7.0625 -9.359375 7.878906 -9.613281 8.484375 -10.125 C 9.097656 -10.632812 9.40625 -11.359375 9.40625 -12.296875 C 9.40625 -13.191406 9.140625 -13.859375 8.609375 -14.296875 C 8.085938 -14.742188 7.351562 -14.96875 6.40625 -14.96875 C 4.75 -14.96875 3.566406 -14.3125 2.859375 -13 L 2.609375 -12.953125 L 1.53125 -14.125 C 1.96875 -14.882812 2.601562 -15.492188 3.4375 -15.953125 C 4.269531 -16.421875 5.257812 -16.65625 6.40625 -16.65625 C 7.445312 -16.65625 8.335938 -16.488281 9.078125 -16.15625 C 9.816406 -15.832031 10.375 -15.363281 10.75 -14.75 C 11.132812 -14.144531 11.328125 -13.414062 11.328125 -12.5625 C 11.328125 -11.75 11.09375 -11.035156 10.625 -10.421875 C 10.15625 -9.816406 9.535156 -9.335938 8.765625 -8.984375 L 8.765625 -8.75 C 9.859375 -8.488281 10.675781 -8 11.21875 -7.28125 C 11.769531 -6.5625 12.046875 -5.6875 12.046875 -4.65625 C 12.046875 -3.09375 11.578125 -1.882812 10.640625 -1.03125 C 9.710938 -0.1875 8.332031 0.234375 6.5 0.234375 Z M 6.5 0.234375 "/></g></g></g><g fill="#000000" fill-opacity="1"><g transform="translate(885.221008, 330.843402)"><g><path d="M 6.765625 0.234375 C 5.222656 0.234375 3.992188 -0.101562 3.078125 -0.78125 C 2.160156 -1.46875 1.566406 -2.4375 1.296875 -3.6875 L 2.71875 -4.328125 L 2.96875 -4.296875 C 3.15625 -3.648438 3.398438 -3.125 3.703125 -2.71875 C 4.015625 -2.320312 4.414062 -2.019531 4.90625 -1.8125 C 5.40625 -1.601562 6.023438 -1.5 6.765625 -1.5 C 7.867188 -1.5 8.726562 -1.832031 9.34375 -2.5 C 9.96875 -3.164062 10.28125 -4.128906 10.28125 -5.390625 C 10.28125 -6.679688 9.972656 -7.660156 9.359375 -8.328125 C 8.753906 -8.992188 7.914062 -9.328125 6.84375 -9.328125 C 6.03125 -9.328125 5.367188 -9.160156 4.859375 -8.828125 C 4.347656 -8.503906 3.898438 -8.003906 3.515625 -7.328125 L 1.96875 -7.453125 L 2.28125 -16.421875 L 11.484375 -16.421875 L 11.484375 -14.78125 L 3.96875 -14.78125 L 3.78125 -9.328125 L 4.015625 -9.28125 C 4.398438 -9.851562 4.867188 -10.28125 5.421875 -10.5625 C 5.984375 -10.84375 6.65625 -10.984375 7.4375 -10.984375 C 8.414062 -10.984375 9.269531 -10.765625 10 -10.328125 C 10.726562 -9.890625 11.289062 -9.25 11.6875 -8.40625 C 12.09375 -7.570312 12.296875 -6.566406 12.296875 -5.390625 C 12.296875 -4.222656 12.066406 -3.210938 11.609375 -2.359375 C 11.148438 -1.515625 10.5 -0.867188 9.65625 -0.421875 C 8.820312 0.015625 7.859375 0.234375 6.765625 0.234375 Z M 6.765625 0.234375 "/></g></g></g><g fill="#000000" fill-opacity="1"><g transform="translate(898.805259, 330.843402)"><g><path d="M 4.671875 -7.5 C 3.929688 -7.5 3.28125 -7.660156 2.71875 -7.984375 C 2.164062 -8.316406 1.726562 -8.820312 1.40625 -9.5 C 1.09375 -10.1875 0.9375 -11.046875 0.9375 -12.078125 C 0.9375 -13.609375 1.273438 -14.753906 1.953125 -15.515625 C 2.628906 -16.273438 3.535156 -16.65625 4.671875 -16.65625 C 5.398438 -16.65625 6.039062 -16.488281 6.59375 -16.15625 C 7.15625 -15.832031 7.59375 -15.332031 7.90625 -14.65625 C 8.21875 -13.976562 8.375 -13.117188 8.375 -12.078125 C 8.375 -11.046875 8.21875 -10.1875 7.90625 -9.5 C 7.59375 -8.820312 7.15625 -8.316406 6.59375 -7.984375 C 6.039062 -7.660156 5.398438 -7.5 4.671875 -7.5 Z M 5.046875 0 L 3.40625 0 L 3.359375 -0.234375 L 14.328125 -16.421875 L 15.984375 -16.421875 L 16.03125 -16.1875 Z M 4.671875 -8.921875 C 5.378906 -8.921875 5.898438 -9.160156 6.234375 -9.640625 C 6.566406 -10.117188 6.734375 -10.929688 6.734375 -12.078125 C 6.734375 -13.222656 6.566406 -14.035156 6.234375 -14.515625 C 5.898438 -15.003906 5.378906 -15.25 4.671875 -15.25 C 4.191406 -15.25 3.800781 -15.144531 3.5 -14.9375 C 3.195312 -14.738281 2.96875 -14.40625 2.8125 -13.9375 C 2.65625 -13.476562 2.578125 -12.859375 2.578125 -12.078125 C 2.578125 -11.304688 2.65625 -10.6875 2.8125 -10.21875 C 2.96875 -9.757812 3.195312 -9.425781 3.5 -9.21875 C 3.800781 -9.019531 4.191406 -8.921875 4.671875 -8.921875 Z M 14.75 0.234375 C 13.613281 0.234375 12.707031 -0.144531 12.03125 -0.90625 C 11.363281 -1.664062 11.03125 -2.804688 11.03125 -4.328125 C 11.03125 -5.867188 11.363281 -7.019531 12.03125 -7.78125 C 12.707031 -8.539062 13.613281 -8.921875 14.75 -8.921875 C 15.488281 -8.921875 16.132812 -8.753906 16.6875 -8.421875 C 17.238281 -8.097656 17.671875 -7.59375 17.984375 -6.90625 C 18.304688 -6.226562 18.46875 -5.367188 18.46875 -4.328125 C 18.46875 -3.296875 18.304688 -2.4375 17.984375 -1.75 C 17.671875 -1.070312 17.238281 -0.570312 16.6875 -0.25 C 16.132812 0.0703125 15.488281 0.234375 14.75 0.234375 Z M 14.75 -1.171875 C 15.457031 -1.171875 15.976562 -1.410156 16.3125 -1.890625 C 16.65625 -2.367188 16.828125 -3.179688 16.828125 -4.328125 C 16.828125 -5.472656 16.65625 -6.285156 16.3125 -6.765625 C 15.976562 -7.253906 15.457031 -7.5 14.75 -7.5 C 14.039062 -7.5 13.515625 -7.257812 13.171875 -6.78125 C 12.835938 -6.300781 12.671875 -5.484375 12.671875 -4.328125 C 12.671875 -3.179688 12.835938 -2.367188 13.171875 -1.890625 C 13.515625 -1.410156 14.039062 -1.171875 14.75 -1.171875 Z M 14.75 -1.171875 "/></g></g></g><g fill="#000000" fill-opacity="1"><g transform="translate(754.312591, 511.907562)"><g><path d="M 4.265625 0 L 2.484375 0 L 2.484375 -16.421875 L 5.34375 -16.421875 L 10.328125 -2.515625 L 10.5625 -2.515625 L 15.53125 -16.421875 L 18.296875 -16.421875 L 18.296875 0 L 16.46875 0 L 16.46875 -13.390625 L 16.1875 -13.4375 L 11.328125 0 L 9.40625 0 L 4.546875 -13.4375 L 4.265625 -13.390625 Z M 4.265625 0 "/></g></g></g><g fill="#000000" fill-opacity="1"><g transform="translate(775.093126, 511.907562)"><g><path d="M 11.796875 -5.765625 L 3.296875 -5.765625 C 3.347656 -4.265625 3.707031 -3.160156 4.375 -2.453125 C 5.039062 -1.753906 5.957031 -1.40625 7.125 -1.40625 C 8.007812 -1.40625 8.722656 -1.5625 9.265625 -1.875 C 9.804688 -2.1875 10.226562 -2.679688 10.53125 -3.359375 L 10.765625 -3.359375 L 11.953125 -2.65625 C 11.597656 -1.75 11.023438 -1.039062 10.234375 -0.53125 C 9.441406 -0.0195312 8.40625 0.234375 7.125 0.234375 C 5.925781 0.234375 4.894531 0 4.03125 -0.46875 C 3.175781 -0.9375 2.515625 -1.648438 2.046875 -2.609375 C 1.585938 -3.566406 1.359375 -4.757812 1.359375 -6.1875 C 1.359375 -7.59375 1.601562 -8.78125 2.09375 -9.75 C 2.582031 -10.71875 3.25 -11.4375 4.09375 -11.90625 C 4.945312 -12.382812 5.921875 -12.625 7.015625 -12.625 C 8.609375 -12.625 9.847656 -12.175781 10.734375 -11.28125 C 11.628906 -10.382812 12.078125 -9.054688 12.078125 -7.296875 C 12.078125 -6.609375 12.066406 -6.144531 12.046875 -5.90625 Z M 10.28125 -7.296875 C 10.25 -8.617188 9.953125 -9.578125 9.390625 -10.171875 C 8.835938 -10.773438 8.046875 -11.078125 7.015625 -11.078125 C 5.929688 -11.078125 5.078125 -10.773438 4.453125 -10.171875 C 3.835938 -9.566406 3.460938 -8.609375 3.328125 -7.296875 Z M 10.28125 -7.296875 "/></g></g></g><g fill="#000000" fill-opacity="1"><g transform="translate(788.295671, 511.907562)"><g><path d="M 2.15625 0 L 2.15625 -12.390625 L 3.890625 -12.390625 L 3.890625 -10.4375 L 4.140625 -10.390625 C 4.546875 -11.117188 5.066406 -11.671875 5.703125 -12.046875 C 6.347656 -12.429688 7.128906 -12.625 8.046875 -12.625 C 9.535156 -12.625 10.613281 -12.242188 11.28125 -11.484375 C 11.957031 -10.722656 12.296875 -9.550781 12.296875 -7.96875 L 12.296875 0 L 10.46875 0 L 10.46875 -7.921875 C 10.46875 -8.671875 10.367188 -9.269531 10.171875 -9.71875 C 9.984375 -10.175781 9.6875 -10.507812 9.28125 -10.71875 C 8.882812 -10.925781 8.363281 -11.03125 7.71875 -11.03125 C 6.601562 -11.03125 5.703125 -10.660156 5.015625 -9.921875 C 4.328125 -9.179688 3.984375 -7.992188 3.984375 -6.359375 L 3.984375 0 Z M 2.15625 0 "/></g></g></g><g fill="#000000" fill-opacity="1"><g transform="translate(802.553521, 511.907562)"><g><path d="M 8.375 -1.96875 L 8.96875 -0.65625 C 8.675781 -0.363281 8.289062 -0.144531 7.8125 0 C 7.332031 0.15625 6.816406 0.234375 6.265625 0.234375 C 3.898438 0.234375 2.71875 -0.960938 2.71875 -3.359375 L 2.71875 -10.890625 L 0.5625 -10.890625 L 0.5625 -12.40625 L 2.71875 -12.40625 L 2.71875 -15.015625 L 4.546875 -15.3125 L 4.546875 -12.40625 L 8.53125 -12.40625 L 8.53125 -10.890625 L 4.546875 -10.890625 L 4.546875 -3.53125 C 4.546875 -2.113281 5.164062 -1.40625 6.40625 -1.40625 C 7.070312 -1.40625 7.648438 -1.59375 8.140625 -1.96875 Z M 8.375 -1.96875 "/></g></g></g><g fill="#000000" fill-opacity="1"><g transform="translate(811.98391, 511.907562)"><g><path d="M 7.109375 0.234375 C 5.941406 0.234375 4.925781 -0.0078125 4.0625 -0.5 C 3.195312 -1 2.53125 -1.726562 2.0625 -2.6875 C 1.59375 -3.65625 1.359375 -4.820312 1.359375 -6.1875 C 1.359375 -7.5625 1.59375 -8.726562 2.0625 -9.6875 C 2.53125 -10.65625 3.195312 -11.382812 4.0625 -11.875 C 4.925781 -12.375 5.941406 -12.625 7.109375 -12.625 C 8.273438 -12.625 9.289062 -12.375 10.15625 -11.875 C 11.019531 -11.382812 11.6875 -10.65625 12.15625 -9.6875 C 12.625 -8.726562 12.859375 -7.5625 12.859375 -6.1875 C 12.859375 -4.820312 12.625 -3.65625 12.15625 -2.6875 C 11.6875 -1.726562 11.019531 -1 10.15625 -0.5 C 9.289062 -0.0078125 8.273438 0.234375 7.109375 0.234375 Z M 7.109375 -1.40625 C 8.347656 -1.40625 9.289062 -1.789062 9.9375 -2.5625 C 10.59375 -3.34375 10.921875 -4.550781 10.921875 -6.1875 C 10.921875 -7.820312 10.59375 -9.03125 9.9375 -9.8125 C 9.289062 -10.59375 8.347656 -10.984375 7.109375 -10.984375 C 5.867188 -10.984375 4.921875 -10.59375 4.265625 -9.8125 C 3.609375 -9.03125 3.28125 -7.820312 3.28125 -6.1875 C 3.28125 -4.550781 3.609375 -3.34375 4.265625 -2.5625 C 4.921875 -1.789062 5.867188 -1.40625 7.109375 -1.40625 Z M 7.109375 -1.40625 "/></g></g></g><g fill="#000000" fill-opacity="1"><g transform="translate(826.196853, 511.907562)"><g><path d="M 2.15625 0 L 2.15625 -12.390625 L 3.890625 -12.390625 L 3.890625 -10.4375 L 4.140625 -10.390625 C 4.710938 -11.796875 5.796875 -12.5 7.390625 -12.5 C 8.234375 -12.5 8.863281 -12.347656 9.28125 -12.046875 L 8.8125 -10.484375 L 8.59375 -10.4375 C 8.125 -10.675781 7.613281 -10.796875 7.0625 -10.796875 C 6.070312 -10.796875 5.3125 -10.421875 4.78125 -9.671875 C 4.25 -8.929688 3.984375 -7.734375 3.984375 -6.078125 L 3.984375 0 Z M 2.15625 0 "/></g></g></g><g fill="#000000" fill-opacity="1"><g transform="translate(771.140715, 543.407561)"><g><path d="M 1.171875 0 L 1.171875 -1.59375 L 5.65625 -1.59375 L 5.65625 -14.15625 L 5.390625 -14.21875 C 4.660156 -13.851562 4.019531 -13.578125 3.46875 -13.390625 C 2.925781 -13.203125 2.226562 -13.019531 1.375 -12.84375 L 1.375 -14.609375 C 2.226562 -14.785156 3.066406 -15.023438 3.890625 -15.328125 C 4.710938 -15.640625 5.460938 -16.003906 6.140625 -16.421875 L 7.53125 -16.421875 L 7.53125 -1.59375 L 11.546875 -1.59375 L 11.546875 0 Z M 1.171875 0 "/></g></g></g><g fill="#000000" fill-opacity="1"><g transform="translate(783.377767, 543.407561)"><g><path d="M 8.078125 0.234375 C 6.867188 0.234375 5.785156 -0.0507812 4.828125 -0.625 C 3.867188 -1.207031 3.101562 -2.128906 2.53125 -3.390625 C 1.96875 -4.660156 1.6875 -6.265625 1.6875 -8.203125 C 1.6875 -10.148438 1.96875 -11.753906 2.53125 -13.015625 C 3.101562 -14.285156 3.867188 -15.207031 4.828125 -15.78125 C 5.785156 -16.363281 6.867188 -16.65625 8.078125 -16.65625 C 9.285156 -16.65625 10.367188 -16.363281 11.328125 -15.78125 C 12.285156 -15.207031 13.046875 -14.285156 13.609375 -13.015625 C 14.171875 -11.753906 14.453125 -10.148438 14.453125 -8.203125 C 14.453125 -6.265625 14.171875 -4.660156 13.609375 -3.390625 C 13.046875 -2.128906 12.285156 -1.207031 11.328125 -0.625 C 10.367188 -0.0507812 9.285156 0.234375 8.078125 0.234375 Z M 8.078125 -1.546875 C 9.503906 -1.546875 10.585938 -2.0625 11.328125 -3.09375 C 12.066406 -4.125 12.4375 -5.828125 12.4375 -8.203125 C 12.4375 -10.585938 12.066406 -12.296875 11.328125 -13.328125 C 10.585938 -14.359375 9.503906 -14.875 8.078125 -14.875 C 7.128906 -14.875 6.332031 -14.65625 5.6875 -14.21875 C 5.050781 -13.78125 4.5625 -13.070312 4.21875 -12.09375 C 3.875 -11.113281 3.703125 -9.816406 3.703125 -8.203125 C 3.703125 -6.597656 3.875 -5.304688 4.21875 -4.328125 C 4.5625 -3.347656 5.050781 -2.640625 5.6875 -2.203125 C 6.332031 -1.765625 7.128906 -1.546875 8.078125 -1.546875 Z M 8.078125 -1.546875 "/></g></g></g><g fill="#000000" fill-opacity="1"><g transform="translate(799.521695, 543.407561)"><g><path d="M 4.671875 -7.5 C 3.929688 -7.5 3.28125 -7.660156 2.71875 -7.984375 C 2.164062 -8.316406 1.726562 -8.820312 1.40625 -9.5 C 1.09375 -10.1875 0.9375 -11.046875 0.9375 -12.078125 C 0.9375 -13.609375 1.273438 -14.753906 1.953125 -15.515625 C 2.628906 -16.273438 3.535156 -16.65625 4.671875 -16.65625 C 5.398438 -16.65625 6.039062 -16.488281 6.59375 -16.15625 C 7.15625 -15.832031 7.59375 -15.332031 7.90625 -14.65625 C 8.21875 -13.976562 8.375 -13.117188 8.375 -12.078125 C 8.375 -11.046875 8.21875 -10.1875 7.90625 -9.5 C 7.59375 -8.820312 7.15625 -8.316406 6.59375 -7.984375 C 6.039062 -7.660156 5.398438 -7.5 4.671875 -7.5 Z M 5.046875 0 L 3.40625 0 L 3.359375 -0.234375 L 14.328125 -16.421875 L 15.984375 -16.421875 L 16.03125 -16.1875 Z M 4.671875 -8.921875 C 5.378906 -8.921875 5.898438 -9.160156 6.234375 -9.640625 C 6.566406 -10.117188 6.734375 -10.929688 6.734375 -12.078125 C 6.734375 -13.222656 6.566406 -14.035156 6.234375 -14.515625 C 5.898438 -15.003906 5.378906 -15.25 4.671875 -15.25 C 4.191406 -15.25 3.800781 -15.144531 3.5 -14.9375 C 3.195312 -14.738281 2.96875 -14.40625 2.8125 -13.9375 C 2.65625 -13.476562 2.578125 -12.859375 2.578125 -12.078125 C 2.578125 -11.304688 2.65625 -10.6875 2.8125 -10.21875 C 2.96875 -9.757812 3.195312 -9.425781 3.5 -9.21875 C 3.800781 -9.019531 4.191406 -8.921875 4.671875 -8.921875 Z M 14.75 0.234375 C 13.613281 0.234375 12.707031 -0.144531 12.03125 -0.90625 C 11.363281 -1.664062 11.03125 -2.804688 11.03125 -4.328125 C 11.03125 -5.867188 11.363281 -7.019531 12.03125 -7.78125 C 12.707031 -8.539062 13.613281 -8.921875 14.75 -8.921875 C 15.488281 -8.921875 16.132812 -8.753906 16.6875 -8.421875 C 17.238281 -8.097656 17.671875 -7.59375 17.984375 -6.90625 C 18.304688 -6.226562 18.46875 -5.367188 18.46875 -4.328125 C 18.46875 -3.296875 18.304688 -2.4375 17.984375 -1.75 C 17.671875 -1.070312 17.238281 -0.570312 16.6875 -0.25 C 16.132812 0.0703125 15.488281 0.234375 14.75 0.234375 Z M 14.75 -1.171875 C 15.457031 -1.171875 15.976562 -1.410156 16.3125 -1.890625 C 16.65625 -2.367188 16.828125 -3.179688 16.828125 -4.328125 C 16.828125 -5.472656 16.65625 -6.285156 16.3125 -6.765625 C 15.976562 -7.253906 15.457031 -7.5 14.75 -7.5 C 14.039062 -7.5 13.515625 -7.257812 13.171875 -6.78125 C 12.835938 -6.300781 12.671875 -5.484375 12.671875 -4.328125 C 12.671875 -3.179688 12.835938 -2.367188 13.171875 -1.890625 C 13.515625 -1.410156 14.039062 -1.171875 14.75 -1.171875 Z M 14.75 -1.171875 "/></g></g></g><g clip-path="url(#e1d69a5e2d)"><g clip-path="url(#2d7d9b64dc)"><path fill="#f5ebe0" d="M 575.804688 262.5 L 815.804688 262.5 L 815.804688 502.5 L 575.804688 502.5 Z M 575.804688 262.5 " fill-opacity="1" fill-rule="nonzero"/></g></g><g clip-path="url(#7bc060f28e)"><g clip-path="url(#7e15a0b91f)"><path fill="#c6c2b6" d="M 575.804688 262.5 L 815.804688 262.5 L 815.804688 502.5 L 575.804688 502.5 Z M 575.804688 262.5 " fill-opacity="1" fill-rule="nonzero"/></g></g><g clip-path="url(#ffaee8a0d9)"><g clip-path="url(#b312848cb5)"><path fill="#989b8f" d="M 575.804688 262.5 L 815.804688 262.5 L 815.804688 502.5 L 575.804688 502.5 Z M 575.804688 262.5 " fill-opacity="1" fill-rule="nonzero"/></g></g><g clip-path="url(#49c93380b9)"><g clip-path="url(#055670b5ee)"><path fill="#6d766b" d="M 575.804688 262.5 L 815.804688 262.5 L 815.804688 502.5 L 575.804688 502.5 Z M 575.804688 262.5 " fill-opacity="1" fill-rule="nonzero"/></g></g></svg>